<?xml version="1.0"?><svg fill="#fff" xmlns="http://www.w3.org/2000/svg"  viewBox="0 0 64 64" width="128px" height="128px">    <path d="M 32 3 C 16.01 3 3 16.01 3 32 C 3 47.99 16.01 61 32 61 C 47.99 61 61 47.99 61 32 C 61 16.01 47.99 3 32 3 z M 32 5 C 46.888 5 59 17.112 59 32 C 59 46.888 46.888 59 32 59 C 17.112 59 5 46.888 5 32 C 5 17.112 17.112 5 32 5 z M 29.939453 11 C 29.496453 11 29.105469 11.29275 28.980469 11.71875 L 26.394531 20.511719 C 26.236531 20.551719 26.075922 20.585859 25.919922 20.630859 L 26.990234 13.142578 C 27.042234 12.778578 26.88875 12.412312 26.59375 12.195312 C 26.29575 11.977313 25.906266 11.940656 25.572266 12.097656 C 25.403266 12.177656 20.552734 14.603516 20.552734 14.603516 C 20.188734 14.786516 19.971906 15.170172 20.003906 15.576172 L 20.578125 22.884766 L 19.169922 16.775391 C 19.087922 16.420391 18.817797 16.136109 18.466797 16.037109 C 18.113797 15.940109 17.737422 16.038781 17.482422 16.300781 L 13.287109 20.574219 C 12.984109 20.883219 12.914281 21.350375 13.113281 21.734375 L 15.492188 26.324219 L 13.960938 24.382812 C 13.748938 24.111812 13.400312 23.972812 13.070312 24.007812 C 12.728312 24.043813 12.429344 24.251547 12.277344 24.560547 L 10.101562 28.978516 C 9.8865625 29.415516 10.017109 29.942516 10.412109 30.228516 L 15.074219 33.607422 C 15.064219 33.716422 15.066594 33.831406 15.058594 33.941406 L 11.857422 32.130859 C 11.565422 31.963859 11.208203 31.958328 10.908203 32.111328 C 10.608203 32.265328 10.407094 32.559531 10.371094 32.894531 L 10.005859 36.298828 C 9.9548594 36.770828 10.242312 37.214375 10.695312 37.359375 L 13.742188 38.330078 L 12.197266 38.019531 C 11.837266 37.951531 11.460609 38.082141 11.224609 38.369141 C 10.990609 38.657141 10.933125 39.051578 11.078125 39.392578 L 12.355469 42.392578 C 12.512469 42.761578 12.875391 43 13.275391 43 L 13.294922 43 L 14.171875 42.984375 C 14.139875 43.032375 14.106031 43.078812 14.082031 43.132812 C 13.948031 43.438812 13.97725 43.791266 14.15625 44.072266 L 15.726562 46.537109 C 15.917562 46.835109 16.240266 47 16.572266 47 C 16.727266 47 16.885203 46.963719 17.033203 46.886719 L 19.455078 45.626953 C 19.496078 45.667953 19.539078 45.705094 19.580078 45.746094 L 17.078125 51.607422 C 16.924125 51.968422 16.996719 52.385781 17.261719 52.675781 C 17.526719 52.964781 17.935547 53.071219 18.310547 52.949219 C 18.339547 52.939219 21.252 52 24 52 C 28.269 52 30.600141 52.917781 30.619141 52.925781 C 30.743141 52.976781 30.871047 53 30.998047 53 C 31.346047 53 31.683234 52.816047 31.865234 52.498047 L 32.972656 50.576172 L 35.322266 55.435547 C 35.494266 55.790547 35.850656 55.998047 36.222656 55.998047 C 36.349656 55.998047 36.477562 55.976781 36.601562 55.925781 C 38.235563 55.256781 41.101266 53.757141 41.947266 51.244141 C 42.024266 51.015141 42.016781 50.767922 41.925781 50.544922 C 41.396781 49.263922 39.467656 44.904281 36.847656 42.613281 C 36.161656 42.013281 35.688672 41.674188 35.263672 41.367188 C 34.662672 40.931188 34.144609 40.555891 33.224609 39.587891 C 32.597609 38.924891 32.017031 38.440359 31.457031 38.068359 L 45.205078 35.181641 C 45.473078 35.125641 45.705609 34.963422 45.849609 34.732422 C 45.994609 34.501422 46.03675 34.220031 45.96875 33.957031 L 43.619141 24.753906 C 43.539141 24.440906 43.312719 24.183406 43.011719 24.066406 C 42.711719 23.951406 42.370609 23.985062 42.099609 24.164062 L 41.474609 24.578125 L 41.363281 24.449219 C 41.043281 24.119219 40.697078 23.805859 40.330078 23.505859 L 49.648438 15.582031 C 49.919438 15.352031 50.047375 14.996484 49.984375 14.646484 C 49.922375 14.296484 49.67775 14.004813 49.34375 13.882812 L 41.654297 11.0625 C 41.229297 10.9055 40.757094 11.052922 40.496094 11.419922 L 34.037109 20.466797 C 33.798109 20.408797 33.561312 20.343875 33.320312 20.296875 L 37.863281 12.517578 C 38.044281 12.208578 38.045187 11.828578 37.867188 11.517578 C 37.689188 11.206578 37.358953 11.014672 37.001953 11.013672 L 29.941406 11 L 29.939453 11 z M 30.6875 13.001953 L 35.259766 13.011719 L 31.15625 20.041016 C 30.89725 20.027016 30.637859 20 30.380859 20 C 29.776859 20 29.183609 20.039516 28.599609 20.103516 L 30.6875 13.001953 z M 41.681641 13.201172 L 47.046875 15.169922 L 38.625 22.330078 C 37.818 21.847078 36.956734 21.428937 36.052734 21.085938 L 41.681641 13.201172 z M 24.740234 14.744141 L 23.783203 21.429688 C 23.350203 21.627688 22.930484 21.843125 22.521484 22.078125 L 22.050781 16.089844 C 22.713781 15.757844 23.810234 15.209141 24.740234 14.744141 z M 17.630859 19.001953 L 18.988281 24.890625 C 18.553281 25.360625 18.143484 25.853953 17.771484 26.376953 L 15.222656 21.457031 L 17.630859 19.001953 z M 30.380859 22 C 33.864859 22 37.542391 23.466266 39.775391 25.697266 L 25.449219 35.142578 C 25.039219 35.413578 24.887797 35.942625 25.091797 36.390625 L 26.009766 38.412109 C 26.172766 38.776109 26.531969 39 26.917969 39 C 26.984969 39 27.055047 38.992516 27.123047 38.978516 L 27.339844 38.933594 L 28.921875 42.201172 C 28.289875 42.084172 27.566609 42 26.724609 42 C 23.375609 42 21.472437 43.271859 20.648438 44.005859 C 18.322437 41.585859 17.001 38.412047 17 35.123047 C 17 27.764047 22.877859 22 30.380859 22 z M 54.744141 23.132812 C 54.6145 23.124422 54.480109 23.14125 54.349609 23.1875 L 52.460938 23.841797 C 51.938937 24.021797 51.66175 24.592281 51.84375 25.113281 C 51.98575 25.527281 52.373109 25.785156 52.787109 25.785156 C 52.896109 25.785156 53.005281 25.769469 53.113281 25.730469 L 55.003906 25.074219 C 55.525906 24.894219 55.803094 24.325688 55.621094 23.804688 C 55.486844 23.413187 55.133063 23.157984 54.744141 23.132812 z M 30 24 C 28.517 24 27.074797 24.291234 25.716797 24.865234 C 25.207797 25.080234 24.970547 25.666781 25.185547 26.175781 C 25.346547 26.556781 25.717422 26.785156 26.107422 26.785156 C 26.237422 26.785156 26.369094 26.761031 26.496094 26.707031 C 27.605094 26.238031 28.785 26 30 26 C 30.553 26 31 25.553 31 25 C 31 24.447 30.553 24 30 24 z M 42.027344 26.607422 L 43.771484 33.439453 L 27.496094 36.855469 L 27.263672 36.341797 L 42.027344 26.607422 z M 23.064453 26.814453 C 22.808578 26.810328 22.550562 26.904203 22.351562 27.095703 C 20.189563 29.186703 19 31.993 19 35 C 19 36.681 19.369609 38.294875 20.099609 39.796875 C 20.271609 40.152875 20.627047 40.359375 20.998047 40.359375 C 21.145047 40.359375 21.293594 40.327766 21.433594 40.259766 C 21.930594 40.018766 22.137484 39.420828 21.896484 38.923828 C 21.301484 37.695828 21 36.376 21 35 C 21 32.54 21.973187 30.24125 23.742188 28.53125 C 24.138187 28.14725 24.149625 27.514187 23.765625 27.117188 C 23.574125 26.919187 23.320328 26.818578 23.064453 26.814453 z M 13.373047 26.865234 L 15.878906 30.042969 C 15.719906 30.492969 15.582797 30.950922 15.466797 31.419922 L 12.269531 29.103516 L 13.373047 26.865234 z M 55.677734 27.9375 L 53.693359 28.191406 C 53.145359 28.261406 52.759125 28.762547 52.828125 29.310547 C 52.892125 29.815547 53.324312 30.183594 53.820312 30.183594 C 53.862313 30.183594 53.904266 30.180781 53.947266 30.175781 L 55.931641 29.921875 C 56.479641 29.851875 56.865875 29.350734 56.796875 28.802734 C 56.727875 28.255734 56.229734 27.8755 55.677734 27.9375 z M 54.003906 32.703125 C 53.433906 32.655125 52.971688 33.073 52.929688 33.625 C 52.887688 34.175 53.300562 34.655266 53.851562 34.697266 L 55.84375 34.851562 C 55.86975 34.853563 55.896875 34.853516 55.921875 34.853516 C 56.438875 34.853516 56.877969 34.456641 56.917969 33.931641 C 56.959969 33.380641 56.547094 32.899422 55.996094 32.857422 L 54.003906 32.703125 z M 12.197266 34.619141 L 15.0625 36.238281 C 15.0735 36.378281 15.071938 36.519203 15.085938 36.658203 L 12.080078 35.699219 L 12.197266 34.619141 z M 53.005859 37.152344 C 52.617875 37.197953 52.280766 37.470437 52.166016 37.867188 C 52.012016 38.397187 52.317656 38.951469 52.847656 39.105469 L 54.767578 39.664062 C 54.860578 39.691062 54.954875 39.705078 55.046875 39.705078 C 55.479875 39.705078 55.880813 39.421375 56.007812 38.984375 C 56.161813 38.454375 55.856172 37.898141 55.326172 37.744141 L 53.404297 37.185547 C 53.270297 37.146547 53.135188 37.137141 53.005859 37.152344 z M 29.789062 39.402344 C 30.363063 39.682344 31.008438 40.155844 31.773438 40.964844 C 32.821438 42.068844 33.464562 42.534094 34.101562 42.996094 C 34.482563 43.270094 34.91525 43.582141 35.53125 44.119141 C 37.63525 45.959141 39.334969 49.591547 39.917969 50.935547 C 39.304969 52.204547 37.761266 53.154547 36.697266 53.685547 L 29.789062 39.402344 z M 13.662109 40.353516 L 16.207031 40.865234 C 16.218031 40.891234 16.229234 40.918312 16.240234 40.945312 L 13.933594 40.986328 L 13.662109 40.353516 z M 51.515625 41.335938 C 51.127313 41.301672 50.737219 41.496078 50.542969 41.861328 C 50.282969 42.349328 50.467078 42.954844 50.955078 43.214844 L 52.722656 44.154297 C 52.872656 44.233297 53.033406 44.271484 53.191406 44.271484 C 53.549406 44.271484 53.895219 44.080187 54.074219 43.742188 C 54.334219 43.254188 54.150109 42.648672 53.662109 42.388672 L 51.896484 41.449219 C 51.774734 41.384719 51.645062 41.347359 51.515625 41.335938 z M 26.724609 44 C 28.274609 44 29.373438 44.311313 30.023438 44.570312 L 30.042969 44.519531 L 31.919922 48.400391 L 30.537109 50.798828 C 29.418109 50.479828 27.205 50 24 50 C 22.455 50 20.901656 50.254672 19.722656 50.513672 L 21.742188 45.775391 C 21.769188 45.711391 21.800078 45.664812 21.830078 45.632812 C 22.213078 45.249813 23.698609 44 26.724609 44 z M 18.025391 44.013672 C 18.043391 44.037672 18.067938 44.058031 18.085938 44.082031 L 16.921875 44.689453 L 16.648438 44.257812 L 18.025391 44.013672 z M 48.810547 45.083984 C 48.555922 45.107234 48.309812 45.227953 48.132812 45.439453 C 47.779812 45.864453 47.837719 46.493656 48.261719 46.847656 L 49.796875 48.128906 C 49.984875 48.283906 50.2115 48.359375 50.4375 48.359375 C 50.7245 48.359375 51.007078 48.237 51.205078 48 C 51.558078 47.575 51.502125 46.945797 51.078125 46.591797 L 49.542969 45.310547 C 49.329469 45.134047 49.065172 45.060734 48.810547 45.083984 z"/></svg>